<?xml version="1.0" encoding="utf-8"?>
<!-- Generator: Adobe Illustrator 24.1.2, SVG Export Plug-In . SVG Version: 6.00 Build 0)  -->
<svg version="1.1" id="Layer_1" xmlns="http://www.w3.org/2000/svg" xmlns:xlink="http://www.w3.org/1999/xlink" x="0px" y="0px"
	 viewBox="0 0 36 36" style="enable-background:new 0 0 36 36;" xml:space="preserve">
<style type="text/css">
	.st0{fill-rule:evenodd;clip-rule:evenodd;fill:#FFFFFF;}
</style>
<path class="st0" d="M17.9,1C8,1,0,9,0,18.9C0,26.9,5.2,33.6,12.2,36c0.9,0.1,1.2-0.4,1.2-0.9c0-0.4,0-1.5,0-3.1
	c-5,1.1-6.1-2.4-6.1-2.4c-0.8-2.1-2-2.6-2-2.6c-1.7-1.1,0.1-1.1,0.1-1.1c1.8,0.1,2.8,1.9,2.8,1.9c1.7,2.8,4.2,2,5.2,1.5
	c0.1-1.2,0.7-2,1.1-2.4c-4-0.4-8.1-2-8.1-8.9c0-2,0.7-3.5,1.9-4.8C8,12.7,7.5,10.8,8.5,8.4c0,0,1.5-0.4,5,1.9c1.4-0.4,3-0.6,4.5-0.6
	s3.1,0.2,4.5,0.6c3.4-2.3,5-1.9,5-1.9c1,2.4,0.3,4.3,0.2,4.7c1.1,1.2,1.9,2.9,1.9,4.8c0,6.9-4.2,8.4-8.1,8.8
	c0.7,0.6,1.2,1.7,1.2,3.3c0,2.4,0,4.3,0,5c0,0.4,0.3,1,1.2,0.9C30.9,33.5,36,26.8,36,18.8C35.9,9,27.9,1,17.9,1z"/>
</svg>
